<svg width="598" height="1065" viewBox="0 0 598 1065" fill="none" xmlns="http://www.w3.org/2000/svg">
<path d="M91 431C91.99 431 92.98 431 94 431C94 436 94 436 92 441C91.7147 443.597 91.5111 446.204 91.375 448.812C91.3002 450.16 91.2255 451.507 91.1484 452.895C91.075 454.432 91.075 454.432 91 456C90.34 456 89.68 456 89 456C89 479.76 89 503.52 89 528C89.66 528 90.32 528 91 528C91.1238 529.836 91.2475 531.671 91.375 533.562C91.7576 539.592 91.7576 539.592 93.0625 543.625C94.3137 548.129 94.1274 552.351 94 557C94.66 557 95.32 557 96 557C96 560.3 96 563.6 96 567C96.66 567 97.32 567 98 567C98.33 570.3 98.66 573.6 99 577C99.66 577 100.32 577 101 577C101 579.31 101 581.62 101 584C101.66 584 102.32 584 103 584C104 587 104 587 104 594C104.66 594 105.32 594 106 594C106 595.65 106 597.3 106 599C106.99 599 107.98 599 109 599C109 601.31 109 603.62 109 606C109.66 606 110.32 606 111 606C111 607.65 111 609.3 111 611C111.99 611 112.98 611 114 611C114 613.64 114 616.28 114 619C114.66 619 115.32 619 116 619C116 620.65 116 622.3 116 624C116.66 624 117.32 624 118 624C118.33 625.32 118.66 626.64 119 628C119.66 628 120.32 628 121 628C121 629.98 121 631.96 121 634C121.66 634 122.32 634 123 634C123.33 635.32 123.66 636.64 124 638C124.66 638 125.32 638 126 638C126 639.65 126 641.3 126 643C126.66 643 127.32 643 128 643C128 644.65 128 646.3 128 648C128.99 648 129.98 648 131 648C131 649.65 131 651.3 131 653C131.66 653 132.32 653 133 653C133 653.99 133 654.98 133 656C133.66 656 134.32 656 135 656C135.33 657.65 135.66 659.3 136 661C136.66 661 137.32 661 138 661C138 661.66 138 662.32 138 663C138.99 663 139.98 663 141 663C141 664.65 141 666.3 141 668C141.66 668 142.32 668 143 668C143 668.66 143 669.32 143 670C143.99 670.33 144.98 670.66 146 671C146 671.66 146 672.32 146 673C146.66 673 147.32 673 148 673C148 674.65 148 676.3 148 678C148.66 678 149.32 678 150 678C150 679.65 150 681.3 150 683C150.99 683 151.98 683 153 683C153 683.66 153 684.32 153 685C153.66 685 154.32 685 155 685C155 685.99 155 686.98 155 688C155.99 688 156.98 688 158 688C158 688.66 158 689.32 158 690C158.66 690 159.32 690 160 690C160 690.99 160 691.98 160 693C160.99 693 161.98 693 163 693C163 694.65 163 696.3 163 698C163.66 698 164.32 698 165 698C165 698.66 165 699.32 165 700C165.99 700 166.98 700 168 700C168 700.66 168 701.32 168 702C168.66 702 169.32 702 170 702C170 702.99 170 703.98 170 705C170.99 705 171.98 705 173 705C173 705.99 173 706.98 173 708C173.66 708 174.32 708 175 708C175 708.66 175 709.32 175 710C175.99 710 176.98 710 178 710C178 710.66 178 711.32 178 712C178.66 712 179.32 712 180 712C180 712.99 180 713.98 180 715C180.66 715 181.32 715 182 715C182 715.66 182 716.32 182 717C182.99 717 183.98 717 185 717C185 717.99 185 718.98 185 720C185.66 720 186.32 720 187 720C187 720.66 187 721.32 187 722C187.99 722 188.98 722 190 722C190 722.99 190 723.98 190 725C190.66 725 191.32 725 192 725C192 725.66 192 726.32 192 727C192.99 727 193.98 727 195 727C195 727.99 195 728.98 195 730C195.66 730 196.32 730 197 730C197 730.66 197 731.32 197 732C197.99 732 198.98 732 200 732C200 732.99 200 733.98 200 735C200.66 735 201.32 735 202 735C202 735.66 202 736.32 202 737C202.99 737 203.98 737 205 737C205 737.66 205 738.32 205 739C205.66 739 206.32 739 207 739C207 739.99 207 740.98 207 742C207.99 742 208.98 742 210 742C210 742.66 210 743.32 210 744C210.66 744 211.32 744 212 744C212 744.99 212 745.98 212 747C212.99 747 213.98 747 215 747C215 747.66 215 748.32 215 749C215.66 749 216.32 749 217 749C217 749.99 217 750.98 217 752C218.65 752 220.3 752 222 752C222 752.66 222 753.32 222 754C222.66 754 223.32 754 224 754C224 754.99 224 755.98 224 757C224.99 757 225.98 757 227 757C227 757.66 227 758.32 227 759C227.99 759 228.98 759 230 759C230 759.66 230 760.32 230 761C231.32 761.33 232.64 761.66 234 762C234 762.66 234 763.32 234 764C234.99 764 235.98 764 237 764C237 764.99 237 765.98 237 767C237.66 767 238.32 767 239 767C239 767.66 239 768.32 239 769C240.65 769 242.3 769 244 769C244 769.66 244 770.32 244 771C244.99 771 245.98 771 247 771C247 771.99 247 772.98 247 774C247.66 774 248.32 774 249 774C249 774.66 249 775.32 249 776C250.65 776.33 252.3 776.66 254 777C254 777.66 254 778.32 254 779C254.99 779 255.98 779 257 779C257 779.66 257 780.32 257 781C257.66 781 258.32 781 259 781C259 781.99 259 782.98 259 784C260.65 784 262.3 784 264 784C264 784.66 264 785.32 264 786C264.66 786 265.32 786 266 786C266 786.99 266 787.98 266 789C266.99 789 267.98 789 269 789C269 789.66 269 790.32 269 791C270.65 791 272.3 791 274 791C274 791.99 274 792.98 274 794C275.65 794 277.3 794 279 794C279 794.66 279 795.32 279 796C279.66 796 280.32 796 281 796C281 796.99 281 797.98 281 799C282.65 799 284.3 799 286 799C286 799.66 286 800.32 286 801C286.66 801 287.32 801 288 801C291 804 291 804 291 806C292.65 806 294.3 806 296 806C296 806.66 296 807.32 296 808C297.65 808.33 299.3 808.66 301 809C301 809.66 301 810.32 301 811C301.66 811 302.32 811 303 811C303 811.99 303 812.98 303 814C303.99 814 304.98 814 306 814C306 814.66 306 815.32 306 816C307.65 816 309.3 816 311 816C311 816.66 311 817.32 311 818C312.65 818 314.3 818 316 818C316 818.99 316 819.98 316 821C316.66 821 317.32 821 318 821C318 821.66 318 822.32 318 823C318.99 823.33 319.98 823.66 321 824C321 824.66 321 825.32 321 826C322.32 826 323.64 826 325 826C325 826.66 325 827.32 325 828C326.65 828 328.3 828 330 828C330 828.99 330 829.98 330 831C330.99 831 331.98 831 333 831C333 831.66 333 832.32 333 833C333.66 833 334.32 833 335 833C335 833.99 335 834.98 335 836C336.65 836 338.3 836 340 836C340 836.66 340 837.32 340 838C340.99 838 341.98 838 343 838C343 838.66 343 839.32 343 840C343.66 840 344.32 840 345 840C345 840.99 345 841.98 345 843C346.65 843 348.3 843 350 843C350 843.66 350 844.32 350 845C351.65 845.33 353.3 845.66 355 846C355 846.66 355 847.32 355 848C355.99 848 356.98 848 358 848C358 848.66 358 849.32 358 850C358.66 850 359.32 850 360 850C360 850.99 360 851.98 360 853C360.99 853 361.98 853 363 853C363 853.66 363 854.32 363 855C363.66 855 364.32 855 365 855C365 855.99 365 856.98 365 858C366.65 858 368.3 858 370 858C370 858.66 370 859.32 370 860C370.66 860 371.32 860 372 860C372 860.99 372 861.98 372 863C372.99 863 373.98 863 375 863C375 863.66 375 864.32 375 865C375.66 865 376.32 865 377 865C377 865.99 377 866.98 377 868C377.99 868 378.98 868 380 868C380 868.66 380 869.32 380 870C380.66 870 381.32 870 382 870C382 870.99 382 871.98 382 873C382.99 873 383.98 873 385 873C385 873.66 385 874.32 385 875C385.66 875 386.32 875 387 875C387 875.99 387 876.98 387 878C387.66 878 388.32 878 389 878C389 878.66 389 879.32 389 880C389.99 880 390.98 880 392 880C392 880.99 392 881.98 392 883C392.99 883 393.98 883 395 883C395 883.66 395 884.32 395 885C395.66 885 396.32 885 397 885C397 885.66 397 886.32 397 887C397.99 887 398.98 887 400 887C400 887.99 400 888.98 400 890C400.66 890 401.32 890 402 890C402 890.66 402 891.32 402 892C402.99 892 403.98 892 405 892C405 892.99 405 893.98 405 895C405.66 895 406.32 895 407 895C407 895.66 407 896.32 407 897C407.66 897 408.32 897 409 897C409 898.65 409 900.3 409 902C409.99 902 410.98 902 412 902C412 903.65 412 905.3 412 907C412.66 907 413.32 907 414 907C414 907.99 414 908.98 414 910C414.99 910 415.98 910 417 910C417 911.32 417 912.64 417 914C417.66 914 418.32 914 419 914C419 914.99 419 915.98 419 917C419.99 917 420.98 917 422 917C422 918.65 422 920.3 422 922C422.66 922 423.32 922 424 922C424 923.65 424 925.3 424 927C424.66 927 425.32 927 426 927C426.33 929.31 426.66 931.62 427 934C427.66 934 428.32 934 429 934C429 936.64 429 939.28 429 942C429.66 942 430.32 942 431 942C431.33 944.31 431.66 946.62 432 949C432.66 949 433.32 949 434 949C434 959.56 434 970.12 434 981C433.34 981 432.68 981 432 981C431.67 984.3 431.34 987.6 431 991C430.34 991 429.68 991 429 991C429 994.3 429 997.6 429 1001C428.34 1001 427.68 1001 427 1001C427 1002.65 427 1004.3 427 1006C426.01 1006 425.02 1006 424 1006C424 1007.65 424 1009.3 424 1011C423.34 1011 422.68 1011 422 1011C422 1012.65 422 1014.3 422 1016C421.01 1016 420.02 1016 419 1016C419 1016.66 419 1017.32 419 1018C418.34 1018 417.68 1018 417 1018C417 1018.99 417 1019.98 417 1021C416.01 1021 415.02 1021 414 1021C414 1022.32 414 1023.64 414 1025C413.34 1025 412.68 1025 412 1025C412 1025.99 412 1026.98 412 1028C411.01 1028 410.02 1028 409 1028C409 1028.66 409 1029.32 409 1030C408.34 1030 407.68 1030 407 1030C407 1030.99 407 1031.98 407 1033C405.35 1033 403.7 1033 402 1033C402 1033.66 402 1034.32 402 1035C401.01 1035 400.02 1035 399 1035C399 1035.99 399 1036.98 399 1038C398.34 1038 397.68 1038 397 1038C397 1038.66 397 1039.32 397 1040C396.01 1040 395.02 1040 394 1040C394 1040.66 394 1041.32 394 1042C392.68 1042.33 391.36 1042.66 390 1043C390 1043.66 390 1044.32 390 1045C389.01 1045 388.02 1045 387 1045C387 1045.99 387 1046.98 387 1048C385.35 1048 383.7 1048 382 1048C382 1048.66 382 1049.32 382 1050C380.35 1050 378.7 1050 377 1050C377 1050.99 377 1051.98 377 1053C375.35 1053 373.7 1053 372 1053C372 1053.66 372 1054.32 372 1055C369.69 1055 367.38 1055 365 1055C365 1055.66 365 1056.32 365 1057C362.36 1057.33 359.72 1057.66 357 1058C357 1058.66 357 1059.32 357 1060C354.03 1060 351.06 1060 348 1060C348 1060.66 348 1061.32 348 1062C345 1063 345 1063 338 1063C338 1063.66 338 1064.32 338 1065C320.18 1065 302.36 1065 284 1065C284 1064.34 284 1063.68 284 1063C282.453 1063.02 280.906 1063.04 279.312 1063.06C274 1063 274 1063 269 1062C269 1061.34 269 1060.68 269 1060C265.7 1060 262.4 1060 259 1060C259 1059.34 259 1058.68 259 1058C255.7 1057.67 252.4 1057.34 249 1057C249 1056.34 249 1055.68 249 1055C245.7 1055 242.4 1055 239 1055C239 1054.34 239 1053.68 239 1053C236.69 1052.67 234.38 1052.34 232 1052C232 1051.34 232 1050.68 232 1050C228.7 1050 225.4 1050 222 1050C222 1049.34 222 1048.68 222 1048C217.737 1046.29 214.487 1045.53 210 1045C210 1044.34 210 1043.68 210 1043C208.35 1043 206.7 1043 205 1043C200 1040 200 1040 200 1038C198.35 1038 196.7 1038 195 1038C195 1037.34 195 1036.68 195 1036C193.35 1035.67 191.7 1035.34 190 1035C190 1034.34 190 1033.68 190 1033C188.35 1033 186.7 1033 185 1033C185 1032.01 185 1031.02 185 1030C183.35 1030 181.7 1030 180 1030C180 1029.34 180 1028.68 180 1028C178.35 1028 176.7 1028 175 1028C175 1027.34 175 1026.68 175 1026C173.35 1025.67 171.7 1025.34 170 1025C170 1024.34 170 1023.68 170 1023C168.35 1023 166.7 1023 165 1023C165 1022.34 165 1021.68 165 1021C164.34 1021 163.68 1021 163 1021C163 1020.01 163 1019.02 163 1018C161.35 1018 159.7 1018 158 1018C158 1017.34 158 1016.68 158 1016C156.35 1015.67 154.7 1015.34 153 1015C153 1014.34 153 1013.68 153 1013C152.01 1013 151.02 1013 150 1013C150 1012.34 150 1011.68 150 1011C149.34 1011 148.68 1011 148 1011C148 1010.01 148 1009.02 148 1008C146.35 1008 144.7 1008 143 1008C143 1007.01 143 1006.02 143 1005C142.34 1005 141.68 1005 141 1005C141 1004.34 141 1003.68 141 1003C140.01 1003 139.02 1003 138 1003C138 1002.34 138 1001.68 138 1001C136.35 1001 134.7 1001 133 1001C133 1000.01 133 999.02 133 998C132.34 998 131.68 998 131 998C131 997.34 131 996.68 131 996C130.01 996 129.02 996 128 996C128 995.34 128 994.68 128 994C127.34 994 126.68 994 126 994C126 993.01 126 992.02 126 991C124.35 991 122.7 991 121 991C121 990.34 121 989.68 121 989C120.01 989 119.02 989 118 989C118 988.01 118 987.02 118 986C117.34 986 116.68 986 116 986C116 985.34 116 984.68 116 984C115.01 984 114.02 984 113 984C113 983.01 113 982.02 113 981C112.34 981 111.68 981 111 981C111 980.34 111 979.68 111 979C110.01 979 109.02 979 108 979C108 978.34 108 977.68 108 977C107.34 977 106.68 977 106 977C106 976.01 106 975.02 106 974C105.34 974 104.68 974 104 974C104 973.01 104 972.02 104 971C103.01 971 102.02 971 101 971C101 970.34 101 969.68 101 969C100.34 969 99.68 969 99 969C99 968.01 99 967.02 99 966C98.01 966 97.02 966 96 966C96 965.34 96 964.68 96 964C95.34 964 94.68 964 94 964C94 963.01 94 962.02 94 961C93.01 961 92.02 961 91 961C91 960.34 91 959.68 91 959C90.34 959 89.68 959 89 959C89 958.01 89 957.02 89 956C88.34 956 87.68 956 87 956C87 955.34 87 954.68 87 954C86.01 954 85.02 954 84 954C84 953.34 84 952.68 84 952C83.01 952 82.02 952 81 952C81 950.35 81 948.7 81 947C80.34 947 79.68 947 79 947C79 946.01 79 945.02 79 944C78.01 944 77.02 944 76 944C76 943.34 76 942.68 76 942C75.34 942 74.68 942 74 942C74 941.01 74 940.02 74 939C73.34 939 72.68 939 72 939C71.67 937.35 71.34 935.7 71 934C70.34 934 69.68 934 69 934C69 933.34 69 932.68 69 932C68.34 932 67.68 932 67 932C66.67 930.35 66.34 928.7 66 927C65.34 927 64.68 927 64 927C64 926.01 64 925.02 64 924C63.34 924 62.68 924 62 924C62 923.34 62 922.68 62 922C61.01 922 60.02 922 59 922C59 920.35 59 918.7 59 917C58.34 917 57.68 917 57 917C57 915.35 57 913.7 57 912C56.01 912 55.02 912 54 912C54 911.34 54 910.68 54 910C53.34 910 52.68 910 52 910C52 908.02 52 906.04 52 904C51.34 904 50.68 904 50 904C50 903.34 50 902.68 50 902C49.01 902 48.02 902 47 902C47 900.35 47 898.7 47 897C46.34 897 45.68 897 45 897C44.67 895.35 44.34 893.7 44 892C43.34 892 42.68 892 42 892C42 890.35 42 888.7 42 887C41.34 887 40.68 887 40 887C40 886.34 40 885.68 40 885C39.01 885 38.02 885 37 885C37 882.69 37 880.38 37 878C36.34 878 35.68 878 35 878C34.67 876.35 34.34 874.7 34 873C33.34 873 32.68 873 32 873C32 871.35 32 869.7 32 868C31.34 868 30.68 868 30 868C30 866.35 30 864.7 30 863C29.01 863 28.02 863 27 863C27 860.36 27 857.72 27 855C26.34 855 25.68 855 25 855C25 852.69 25 850.38 25 848C24.01 848 23.02 848 22 848C22 846.35 22 844.7 22 843C21.34 843 20.68 843 20 843C18.3223 837.757 17 833.533 17 828C16.34 828 15.68 828 15 828C15 826.35 15 824.7 15 823C14.34 823 13.68 823 13 823C11.1595 819.319 11.9483 815.035 12 811C11.34 811 10.68 811 10 811C10 807.7 10 804.4 10 801C9.34 801 8.68 801 8 801C6.39861 797.797 6.9432 794.521 7 791C6.34 791 5.68 791 5 791C5 787.04 5 783.08 5 779C4.01 779 3.02 779 2 779C2 774.05 2 769.1 2 764C1.34 764 0.68 764 0 764C0 733.97 0 703.94 0 673C0.66 673 1.32 673 2 673C2 668.05 2 663.1 2 658C2.99 658 3.98 658 5 658C5 652.39 5 646.78 5 641C5.66 641 6.32 641 7 641C7.33 637.7 7.66 634.4 8 631C8.66 631 9.32 631 10 631C10 626.05 10 621.1 10 616C10.66 616 11.32 616 12 616C12 613.69 12 611.38 12 609C12.66 608.01 13.32 607.02 14 606C14.3939 603.676 14.7349 601.342 15 599C15.66 599 16.32 599 17 599C17.1238 598.01 17.2475 597.02 17.375 596C19.25 584 19.25 584 22 584C22.33 581.69 22.66 579.38 23 577C23.66 577 24.32 577 25 577C25 575.35 25 573.7 25 572C25.66 572 26.32 572 27 572C27 568.7 27 565.4 27 562C27.99 562 28.98 562 30 562C30 560.35 30 558.7 30 557C30.66 557 31.32 557 32 557C32 554.69 32 552.38 32 550C32.66 550 33.32 550 34 550C34.33 548.35 34.66 546.7 35 545C35.66 545 36.32 545 37 545C37 542.36 37 539.72 37 537C37.66 537 38.32 537 39 537C39.33 535.35 39.66 533.7 40 532C40.66 532 41.32 532 42 532C42 529.69 42 527.38 42 525C42.66 525 43.32 525 44 525C44 523.35 44 521.7 44 520C44.99 520 45.98 520 47 520C47 518.35 47 516.7 47 515C47.66 515 48.32 515 49 515C49.33 513.35 49.66 511.7 50 510C50.66 510 51.32 510 52 510C52 507.69 52 505.38 52 503C52.66 503 53.32 503 54 503C54 501.35 54 499.7 54 498C54.99 498 55.98 498 57 498C57 497.01 57 496.02 57 495C57.66 495 58.32 495 59 495C59 492.69 59 490.38 59 488C59.99 488 60.98 488 62 488C62 487.01 62 486.02 62 485C62.66 485 63.32 485 64 485C64 482.69 64 480.38 64 478C64.99 478 65.98 478 67 478C67 476.35 67 474.7 67 473C67.66 473 68.32 473 69 473C69 472.34 69 471.68 69 471C69.66 471 70.32 471 71 471C71.33 469.35 71.66 467.7 72 466C72.66 466 73.32 466 74 466C74 464.35 74 462.7 74 461C74.66 461 75.32 461 76 461C76.33 459.35 76.66 457.7 77 456C77.66 456 78.32 456 79 456C79 454.35 79 452.7 79 451C79.66 451 80.32 451 81 451C81.33 449.35 81.66 447.7 82 446C82.66 446 83.32 446 84 446C84 445.34 84 444.68 84 444C84.66 444 85.32 444 86 444C86.33 442.35 86.66 440.7 87 439C87.66 439 88.32 439 89 439C89 437.35 89 435.7 89 434C89.66 434 90.32 434 91 434C91 433.01 91 432.02 91 431Z" fill="#009CE7"/>
<path d="M343 0C343.66 0 344.32 0 345 0C345 24.42 345 48.84 345 74C345.66 74 346.32 74 347 74C347.767 80.7082 348.096 87.2488 348 94C348.66 94 349.32 94 350 94C350 98.62 350 103.24 350 108C350.66 108 351.32 108 352 108C353 111 353 111 353 118C353.66 118 354.32 118 355 118C355 122.95 355 127.9 355 133C355.99 133 356.98 133 358 133C358 136.96 358 140.92 358 145C358.66 145 359.32 145 360 145C360 149.29 360 153.58 360 158C360.99 158 361.98 158 363 158C363 160.31 363 162.62 363 165C363.66 165 364.32 165 365 165C365 168.96 365 172.92 365 177C365.66 177 366.32 177 367 177C367.33 180.3 367.66 183.6 368 187C368.66 187 369.32 187 370 187C370 189.64 370 192.28 370 195C370.66 195 371.32 195 372 195C372.309 196.464 372.619 197.929 372.938 199.438C373.501 203.677 373.501 203.677 375 205C375 207.31 375 209.62 375 212C375.66 212 376.32 212 377 212C377.495 214.475 377.495 214.475 378 217C378.66 217 379.32 217 380 217C380 219.31 380 221.62 380 224C380.66 224 381.32 224 382 224C382 226.64 382 229.28 382 232C382.66 232 383.32 232 384 232C384.495 235.465 384.495 235.465 385 239C385.66 239 386.32 239 387 239C387 240.65 387 242.3 387 244C387.99 244 388.98 244 390 244C390 246.31 390 248.62 390 251C390.66 251 391.32 251 392 251C392 253.64 392 256.28 392 259C392.66 259 393.32 259 394 259C394.33 260.65 394.66 262.3 395 264C395.66 264 396.32 264 397 264C397 266.31 397 268.62 397 271C397.66 271 398.32 271 399 271C399 272.65 399 274.3 399 276C399.99 276 400.98 276 402 276C402 278.31 402 280.62 402 283C402.66 283 403.32 283 404 283C404.33 284.65 404.66 286.3 405 288C405.66 288 406.32 288 407 288C407 289.65 407 291.3 407 293C407.66 293 408.32 293 409 293C409 294.65 409 296.3 409 298C409.99 298 410.98 298 412 298C412 299.65 412 301.3 412 303C412.66 303 413.32 303 414 303C415.177 307.001 416.181 310.904 417 315C417.66 315 418.32 315 419 315C419 316.98 419 318.96 419 321C419.66 321 420.32 321 421 321C421.33 322.32 421.66 323.64 422 325C422.66 325 423.32 325 424 325C424 326.65 424 328.3 424 330C424.99 330 425.98 330 427 330C427 331.65 427 333.3 427 335C427.66 335 428.32 335 429 335C429 336.65 429 338.3 429 340C429.99 340 430.98 340 432 340C432 341.65 432 343.3 432 345C432.66 345 433.32 345 434 345C434 346.65 434 348.3 434 350C434.99 350 435.98 350 437 350C437 351.65 437 353.3 437 355C437.66 355 438.32 355 439 355C439 356.65 439 358.3 439 360C439.66 360 440.32 360 441 360C441 361.65 441 363.3 441 365C441.99 365 442.98 365 444 365C444 366.65 444 368.3 444 370C444.66 370 445.32 370 446 370C446 371.65 446 373.3 446 375C446.99 375 447.98 375 449 375C449 376.32 449 377.64 449 379C449.66 379 450.32 379 451 379C454 385 454 385 454 389C454.66 389 455.32 389 456 389C456 389.99 456 390.98 456 392C456.99 392 457.98 392 459 392C459 393.65 459 395.3 459 397C459.66 397 460.32 397 461 397C461 398.65 461 400.3 461 402C461.66 402 462.32 402 463 402C463.33 403.65 463.66 405.3 464 407C464.66 407 465.32 407 466 407C466 408.65 466 410.3 466 412C466.66 412 467.32 412 468 412C468.33 413.32 468.66 414.64 469 416C469.66 416 470.32 416 471 416C471 416.99 471 417.98 471 419C471.66 419 472.32 419 473 419C473.33 420.65 473.66 422.3 474 424C474.66 424 475.32 424 476 424C476 425.65 476 427.3 476 429C476.66 429 477.32 429 478 429C478.33 430.32 478.66 431.64 479 433C479.66 433 480.32 433 481 433C481 434.98 481 436.96 481 439C481.66 439 482.32 439 483 439C483 440.65 483 442.3 483 444C483.99 444 484.98 444 486 444C486 444.66 486 445.32 486 446C486.66 446 487.32 446 488 446C488 447.65 488 449.3 488 451C488.99 451 489.98 451 491 451C491 452.65 491 454.3 491 456C491.66 456 492.32 456 493 456C493 457.65 493 459.3 493 461C493.99 461 494.98 461 496 461C496 461.66 496 462.32 496 463C496.66 463 497.32 463 498 463C498 464.65 498 466.3 498 468C498.66 468 499.32 468 500 468C500.33 469.65 500.66 471.3 501 473C501.66 473 502.32 473 503 473C503 474.65 503 476.3 503 478C503.66 478 504.32 478 505 478C505.33 479.65 505.66 481.3 506 483C506.66 483 507.32 483 508 483C508 484.65 508 486.3 508 488C508.66 488 509.32 488 510 488C510 489.65 510 491.3 510 493C510.99 493 511.98 493 513 493C513 494.65 513 496.3 513 498C513.66 498 514.32 498 515 498C518 503 518 503 518 505C518.66 505 519.32 505 520 505C520 506.65 520 508.3 520 510C520.99 510 521.98 510 523 510C523 511.65 523 513.3 523 515C523.66 515 524.32 515 525 515C525 516.65 525 518.3 525 520C525.99 520 526.98 520 528 520C528 521.65 528 523.3 528 525C528.66 525 529.32 525 530 525C530 526.65 530 528.3 530 530C530.99 530 531.98 530 533 530C533 531.65 533 533.3 533 535C533.66 535 534.32 535 535 535C535 535.66 535 536.32 535 537C535.99 537 536.98 537 538 537C538 538.65 538 540.3 538 542C538.66 542 539.32 542 540 542C540 543.65 540 545.3 540 547C540.99 547 541.98 547 543 547C543 548.65 543 550.3 543 552C543.66 552 544.32 552 545 552C545 553.65 545 555.3 545 557C545.66 557 546.32 557 547 557C547 558.65 547 560.3 547 562C547.99 562 548.98 562 550 562C550 564.31 550 566.62 550 569C550.66 569 551.32 569 552 569C552.33 570.65 552.66 572.3 553 574C553.66 574 554.32 574 555 574C555 575.65 555 577.3 555 579C555.66 579 556.32 579 557 579C557 580.65 557 582.3 557 584C557.99 584 558.98 584 560 584C560 585.65 560 587.3 560 589C560.66 589 561.32 589 562 589C562 591.64 562 594.28 562 597C562.66 597 563.32 597 564 597C564.33 598.32 564.66 599.64 565 601C565.66 601 566.32 601 567 601C567 603.64 567 606.28 567 609C567.66 609 568.32 609 569 609C569.33 610.65 569.66 612.3 570 614C570.66 614 571.32 614 572 614C572 616.31 572 618.62 572 621C572.66 621 573.32 621 574 621C574 622.65 574 624.3 574 626C574.99 626 575.98 626 577 626C577 629.3 577 632.6 577 636C577.66 636 578.32 636 579 636C579 637.65 579 639.3 579 641C579.99 641 580.98 641 582 641C582 644.3 582 647.6 582 651C582.66 651 583.32 651 584 651C584 653.31 584 655.62 584 658C584.99 658 585.98 658 587 658C587 661.3 587 664.6 587 668C587.66 668 588.32 668 589 668C589 671.96 589 675.92 589 680C589.66 680 590.32 680 591 680C592 683 592 683 592 690C592.66 690 593.32 690 594 690C594.049 691.386 594.098 692.771 594.148 694.199C594.261 696.916 594.261 696.916 594.375 699.688C594.445 701.486 594.514 703.284 594.586 705.137C594.774 710.139 594.774 710.139 597 715C597.168 719.097 597.215 723.2 597.195 727.301C597.191 729.088 597.191 729.088 597.187 730.911C597.176 734.712 597.15 738.512 597.125 742.312C597.115 744.891 597.106 747.47 597.098 750.049C597.076 756.366 597.041 762.683 597 769C596.01 769 595.02 769 594 769C594 773.95 594 778.9 594 784C593.34 784 592.68 784 592 784C592.041 785.918 592.082 787.836 592.125 789.812C592 796 592 796 590 799C589.606 801.324 589.265 803.658 589 806C588.34 806 587.68 806 587 806C587 810.95 587 815.9 587 821C586.34 821 585.68 821 585 821C584.67 823.31 584.34 825.62 584 828C583.34 828 582.68 828 582 828C582 830.64 582 833.28 582 836C581.34 836 580.68 836 580 836C579.67 838.31 579.34 840.62 579 843C578.34 843 577.68 843 577 843C577 845.64 577 848.28 577 851C576.34 851 575.68 851 575 851C574.67 853.31 574.34 855.62 574 858C573.34 858 572.68 858 572 858C572 859.65 572 861.3 572 863C571.34 863 570.68 863 570 863C569.67 864.65 569.34 866.3 569 868C568.34 868 567.68 868 567 868C567 870.31 567 872.62 567 875C566.34 875 565.68 875 565 875C565 876.65 565 878.3 565 880C564.01 880 563.02 880 562 880C562 881.65 562 883.3 562 885C561.34 885 560.68 885 560 885C560 886.65 560 888.3 560 890C559.01 890 558.02 890 557 890C557 892.31 557 894.62 557 897C556.34 897 555.68 897 555 897C555 898.65 555 900.3 555 902C554.34 902 553.68 902 553 902C552.67 903.65 552.34 905.3 552 907C551.34 907 550.68 907 550 907C550 907.99 550 908.98 550 910C549.34 910 548.68 910 548 910C547.67 911.32 547.34 912.64 547 914C546.34 914 545.68 914 545 914C545 915.98 545 917.96 545 920C544.34 920 543.68 920 543 920C542.67 921.32 542.34 922.64 542 924C541.34 924 540.68 924 540 924C540 924.99 540 925.98 540 927C539.01 927 538.02 927 537 927C537 928.32 537 929.64 537 931C536.34 931 535.68 931 535 931C535 931.99 535 932.98 535 934C534.34 934 533.68 934 533 934C533 935.65 533 937.3 533 939C532.01 939 531.02 939 530 939C530 939.99 530 940.98 530 942C529.34 942 528.68 942 528 942C527.67 943.32 527.34 944.64 527 946C526.34 946 525.68 946 525 946C525 946.99 525 947.98 525 949C524.34 949 523.68 949 523 949C523 950.65 523 952.3 523 954C522.01 954 521.02 954 520 954C520 954.66 520 955.32 520 956C519.34 956 518.68 956 518 956C518 956.99 518 957.98 518 959C517.01 959 516.02 959 515 959C515 960.65 515 962.3 515 964C514.34 964 513.68 964 513 964C513 964.66 513 965.32 513 966C512.01 966 511.02 966 510 966C510 966.99 510 967.98 510 969C509.34 969 508.68 969 508 969C508 970.65 508 972.3 508 974C507.01 974 506.02 974 505 974C505 974.66 505 975.32 505 976C504.34 976 503.68 976 503 976C503 976.99 503 977.98 503 979C502.34 979 501.68 979 501 979C501 979.66 501 980.32 501 981C500.01 981 499.02 981 498 981C498 981.99 498 982.98 498 984C497.34 984 496.68 984 496 984C496 984.66 496 985.32 496 986C495.01 986 494.02 986 493 986C493 986.99 493 987.98 493 989C492.34 989 491.68 989 491 989C491 989.66 491 990.32 491 991C490.01 991 489.02 991 488 991C488 991.99 488 992.98 488 994C487.34 994 486.68 994 486 994C485.67 995.32 485.34 996.64 485 998C484.34 998 483.68 998 483 998C483 998.99 483 999.98 483 1001C482.34 1001 481.68 1001 481 1001C481 1001.66 481 1002.32 481 1003C480.01 1003 479.02 1003 478 1003C478 1003.99 478 1004.98 478 1006C477.34 1006 476.68 1006 476 1006C476 1006.66 476 1007.32 476 1008C475.01 1008 474.02 1008 473 1008C473 1008.99 473 1009.98 473 1011C472.34 1011 471.68 1011 471 1011C471 1011.66 471 1012.32 471 1013C470.01 1013 469.02 1013 468 1013C468 1013.66 468 1014.32 468 1015C467.34 1015 466.68 1015 466 1015C466 1013.68 466 1012.36 466 1011C466.66 1011 467.32 1011 468 1011C468 1010.01 468 1009.02 468 1008C468.99 1008 469.98 1008 471 1008C471 1007.34 471 1006.68 471 1006C471.66 1006 472.32 1006 473 1006C473 1004.35 473 1002.7 473 1001C473.99 1001 474.98 1001 476 1001C476 1000.01 476 999.02 476 998C476.66 998 477.32 998 478 998C478 996.35 478 994.7 478 993C478.99 993 479.98 993 481 993C481 992.34 481 991.68 481 991C481.66 991 482.32 991 483 991C483 989.35 483 987.7 483 986C483.99 986 484.98 986 486 986C486 985.01 486 984.02 486 983C486.66 983 487.32 983 488 983C488 981.35 488 979.7 488 978C488.66 978 489.32 978 490 978C490.33 976.68 490.66 975.36 491 974C491.66 974 492.32 974 493 974C493 972.35 493 970.7 493 969C493.66 969 494.32 969 495 969C495.33 967.35 495.66 965.7 496 964C496.66 964 497.32 964 498 964C498 962.35 498 960.7 498 959C498.99 959 499.98 959 501 959C501 957.35 501 955.7 501 954C501.66 954 502.32 954 503 954C503 951.69 503 949.38 503 947C503.66 947 504.32 947 505 947C505.33 945.35 505.66 943.7 506 942C506.66 942 507.32 942 508 942C508 939.36 508 936.72 508 934C508.66 934 509.32 934 510 934C510 931.69 510 929.38 510 927C510.99 927 511.98 927 513 927C513 923.7 513 920.4 513 917C513.66 917 514.32 917 515 917C515 913.7 515 910.4 515 907C515.99 907 516.98 907 518 907C518 903.7 518 900.4 518 897C518.66 897 519.32 897 520 897C520 893.04 520 889.08 520 885C520.66 885 521.32 885 522 885C522.33 880.05 522.66 875.1 523 870C523.66 870 524.32 870 525 870C525 853.83 525 837.66 525 821C524.34 821 523.68 821 523 821C522.951 819.614 522.902 818.229 522.852 816.801C522.739 814.084 522.739 814.084 522.625 811.312C522.521 808.615 522.521 808.615 522.414 805.863C522.226 800.861 522.226 800.861 520 796C520 793.69 520 791.38 520 789C519.34 789 518.68 789 518 789C517.876 787.453 517.752 785.906 517.625 784.312C517.226 778.936 517.226 778.936 515 774C514.922 770.668 514.911 767.332 515 764C514.34 764 513.68 764 513 764C513 760.7 513 757.4 513 754C512.34 754 511.68 754 511 754C510.67 751.69 510.34 749.38 510 747C509.34 747 508.68 747 508 747C508 744.69 508 742.38 508 740C507.34 740 506.68 740 506 740C505.67 738.35 505.34 736.7 505 735C504.34 735 503.68 735 503 735C503 732.36 503 729.72 503 727C502.34 727 501.68 727 501 727C500.67 725.35 500.34 723.7 500 722C499.34 722 498.68 722 498 722C498 719.69 498 717.38 498 715C497.34 715 496.68 715 496 715C495.67 713.35 495.34 711.7 495 710C494.34 710 493.68 710 493 710C493 708.35 493 706.7 493 705C492.34 705 491.68 705 491 705C490.67 703.35 490.34 701.7 490 700C489.34 700 488.68 700 488 700C488 697.69 488 695.38 488 693C487.34 693 486.68 693 486 693C486 691.35 486 689.7 486 688C485.34 688 484.68 688 484 688C483.67 686.35 483.34 684.7 483 683C482.34 683 481.68 683 481 683C481 681.35 481 679.7 481 678C480.01 678 479.02 678 478 678C478 677.01 478 676.02 478 675C477.34 675 476.68 675 476 675C476 673.35 476 671.7 476 670C475.34 670 474.68 670 474 670C473.67 668.68 473.34 667.36 473 666C472.34 666 471.68 666 471 666C471 664.35 471 662.7 471 661C470.34 661 469.68 661 469 661C469 660.01 469 659.02 469 658C468.01 658 467.02 658 466 658C466 656.35 466 654.7 466 653C465.34 653 464.68 653 464 653C464 651.35 464 649.7 464 648C463.01 648 462.02 648 461 648C461 646.35 461 644.7 461 643C460.34 643 459.68 643 459 643C459 642.34 459 641.68 459 641C458.01 641 457.02 641 456 641C456 639.35 456 637.7 456 636C455.34 636 454.68 636 454 636C454 635.01 454 634.02 454 633C453.34 633 452.68 633 452 633C451.67 631.68 451.34 630.36 451 629C450.34 629 449.68 629 449 629C449 628.01 449 627.02 449 626C448.01 626 447.02 626 446 626C446 624.35 446 622.7 446 621C445.34 621 444.68 621 444 621C444 620.01 444 619.02 444 618C443.34 618 442.68 618 442 618C441.67 616.68 441.34 615.36 441 614C440.34 614 439.68 614 439 614C439 613.01 439 612.02 439 611C438.34 611 437.68 611 437 611C437 610.34 437 609.68 437 609C436.01 609 435.02 609 434 609C434 607.35 434 605.7 434 604C433.01 604 432.02 604 431 604C431 603.01 431 602.02 431 601C430.34 601 429.68 601 429 601C429 599.35 429 597.7 429 596C428.34 596 427.68 596 427 596C427 595.34 427 594.68 427 594C426.01 594 425.02 594 424 594C424 592.35 424 590.7 424 589C423.34 589 422.68 589 422 589C422 588.34 422 587.68 422 587C421.01 587 420.02 587 419 587C419 586.01 419 585.02 419 584C418.34 584 417.68 584 417 584C417 582.35 417 580.7 417 579C416.01 579 415.02 579 414 579C414 578.34 414 577.68 414 577C413.34 577 412.68 577 412 577C412 576.01 412 575.02 412 574C411.01 574 410.02 574 409 574C409 572.68 409 571.36 409 570C408.34 570 407.68 570 407 570C407 569.01 407 568.02 407 567C406.34 567 405.68 567 405 567C404.67 565.35 404.34 563.7 404 562C403.34 562 402.68 562 402 562C402 561.01 402 560.02 402 559C401.34 559 400.68 559 400 559C400 558.34 400 557.68 400 557C399.01 557 398.02 557 397 557C397 555.35 397 553.7 397 552C396.01 552 395.02 552 394 552C394 551.34 394 550.68 394 550C393.34 550 392.68 550 392 550C392 548.35 392 546.7 392 545C391.34 545 390.68 545 390 545C390 544.01 390 543.02 390 542C389.01 542 388.02 542 387 542C387 541.34 387 540.68 387 540C386.34 540 385.68 540 385 540C385 538.35 385 536.7 385 535C384.01 535 383.02 535 382 535C382 534.01 382 533.02 382 532C381.34 532 380.68 532 380 532C380 531.34 380 530.68 380 530C379.01 530 378.02 530 377 530C377 528.35 377 526.7 377 525C376.34 525 375.68 525 375 525C375 524.01 375 523.02 375 522C374.34 522 373.68 522 373 522C372.67 520.68 372.34 519.36 372 518C371.34 518 370.68 518 370 518C370 517.01 370 516.02 370 515C369.01 515 368.02 515 367 515C367 514.34 367 513.68 367 513C366.34 513 365.68 513 365 513C365 511.35 365 509.7 365 508C364.34 508 363.68 508 363 508C363 507.01 363 506.02 363 505C362.01 505 361.02 505 360 505C360 503.35 360 501.7 360 500C359.01 500 358.02 500 357 500C357 499.34 357 498.68 357 498C356.34 498 355.68 498 355 498C355 496.35 355 494.7 355 493C354.34 493 353.68 493 353 493C353 492.01 353 491.02 353 490C352.01 490 351.02 490 350 490C350 488.68 350 487.36 350 486C349.34 486 348.68 486 348 486C348 485.01 348 484.02 348 483C347.01 483 346.02 483 345 483C345 482.01 345 481.02 345 480C344.34 480 343.68 480 343 480C343 478.68 343 477.36 343 476C342.01 476 341.02 476 340 476C340 474.35 340 472.7 340 471C339.34 471 338.68 471 338 471C338 470.01 338 469.02 338 468C337.34 468 336.68 468 336 468C335.67 466.35 335.34 464.7 335 463C334.34 463 333.68 463 333 463C333 461.35 333 459.7 333 458C332.34 458 331.68 458 331 458C331 457.34 331 456.68 331 456C330.01 456 329.02 456 328 456C328 454.35 328 452.7 328 451C327.34 451 326.68 451 326 451C326 450.01 326 449.02 326 448C325.01 448 324.02 448 323 448C323 446.68 323 445.36 323 444C322.01 444 321.02 444 320 444C320 442.35 320 440.7 320 439C319.34 439 318.68 439 318 439C318 437.35 318 435.7 318 434C317.34 434 316.68 434 316 434C316 432.35 316 430.7 316 429C315.01 429 314.02 429 313 429C313 427.35 313 425.7 313 424C312.34 424 311.68 424 311 424C311 422.35 311 420.7 311 419C310.01 419 309.02 419 308 419C308 417.35 308 415.7 308 414C307.34 414 306.68 414 306 414C306 412.35 306 410.7 306 409C305.01 409 304.02 409 303 409C303 407.35 303 405.7 303 404C302.34 404 301.68 404 301 404C301 401.69 301 399.38 301 397C300.34 397 299.68 397 299 397C298.67 395.35 298.34 393.7 298 392C297.34 392 296.68 392 296 392C296 389.36 296 386.72 296 384C295.34 384 294.68 384 294 384C293.67 381.69 293.34 379.38 293 377C292.34 377 291.68 377 291 377C291 374.69 291 372.38 291 370C290.34 370 289.68 370 289 370C288.67 367.36 288.34 364.72 288 362C287.34 362 286.68 362 286 362C286 359.69 286 357.38 286 355C285.34 355 284.68 355 284 355C283 352 283 352 283 345C282.34 345 281.68 345 281 345C281 344.01 281 343.02 281 342C280.34 342 279.68 342 279 342C277.968 337.874 277.901 334.491 277.938 330.25C277.947 328.894 277.956 327.538 277.965 326.141C277.976 325.104 277.988 324.068 278 323C277.34 323 276.68 323 276 323C276 314.75 276 306.5 276 298C275.34 298 274.68 298 274 298C274 270.28 274 242.56 274 214C274.66 214 275.32 214 276 214C276 209.05 276 204.1 276 199C276.66 199 277.32 199 278 199C278.33 192.73 278.66 186.46 279 180C279.66 180 280.32 180 281 180C281 175.71 281 171.42 281 167C281.66 167 282.32 167 283 167C283.33 164.03 283.66 161.06 284 158C284.66 158 285.32 158 286 158C286 154.7 286 151.4 286 148C286.99 148 287.98 148 289 148C289 144.7 289 141.4 289 138C289.66 138 290.32 138 291 138C291 134.7 291 131.4 291 128C291.66 128 292.32 128 293 128C293.33 125.69 293.66 123.38 294 121C294.66 121 295.32 121 296 121C296 117.7 296 114.4 296 111C296.66 111 297.32 111 298 111C298.33 108.36 298.66 105.72 299 103C299.66 103 300.32 103 301 103C301 100.69 301 98.38 301 96C301.66 96 302.32 96 303 96C303 93.36 303 90.72 303 88C303.66 88 304.32 88 305 88C305.33 85.69 305.66 83.38 306 81C306.66 81 307.32 81 308 81C308.33 79.35 308.66 77.7 309 76C309.66 76 310.32 76 311 76C311 73.69 311 71.38 311 69C311.66 69 312.32 69 313 69C313 67.35 313 65.7 313 64C313.99 64 314.98 64 316 64C316 62.35 316 60.7 316 59C316.66 59 317.32 59 318 59C318 55.7 318 52.4 318 49C318.66 49 319.32 49 320 49C320 47.35 320 45.7 320 44C320.99 44 321.98 44 323 44C323 42.35 323 40.7 323 39C323.99 39 324.98 39 326 39C326 37.35 326 35.7 326 34C326.66 34 327.32 34 328 34C328 31.69 328 29.38 328 27C328.66 27 329.32 27 330 27C330.33 25.35 330.66 23.7 331 22C331.66 22 332.32 22 333 22C333 20.35 333 18.7 333 17C333.66 17 334.32 17 335 17C335.33 15.35 335.66 13.7 336 12C336.66 12 337.32 12 338 12C338 10.35 338 8.7 338 7C338.66 7 339.32 7 340 7C340 5.35 340 3.7 340 2C340.99 2 341.98 2 343 2C343 1.34 343 0.68 343 0Z" fill="#FB8704"/>
<path d="M227 229C227.66 229 228.32 229 229 229C229 233.95 229 238.9 229 244C228.34 244 227.68 244 227 244C227 275.68 227 307.36 227 340C227.66 340 228.32 340 229 340C229 346.6 229 353.2 229 360C229.99 360 230.98 360 232 360C232 363.3 232 366.6 232 370C232.66 370 233.32 370 234 370C234.309 371.609 234.619 373.217 234.937 374.875C235.686 379.585 235.686 379.585 237 382C237.041 385.333 237.043 388.667 237 392C237.66 392 238.32 392 239 392C239 394.31 239 396.62 239 399C239.99 399 240.98 399 242 399C242 402.3 242 405.6 242 409C242.66 409 243.32 409 244 409C244 412.3 244 415.6 244 419C244.99 419 245.98 419 247 419C247 420.65 247 422.3 247 424C247.66 424 248.32 424 249 424C249 426.31 249 428.62 249 431C249.99 431 250.98 431 252 431C252 432.65 252 434.3 252 436C252.66 436 253.32 436 254 436C254 437.65 254 439.3 254 441C254.99 441 255.98 441 257 441C257 443.31 257 445.62 257 448C257.66 448 258.32 448 259 448C259 450.64 259 453.28 259 456C259.66 456 260.32 456 261 456C261 457.65 261 459.3 261 461C261.99 461 262.98 461 264 461C264 462.65 264 464.3 264 466C264.66 466 265.32 466 266 466C269 471 269 471 269 473C269.66 473 270.32 473 271 473C271 474.65 271 476.3 271 478C271.99 478 272.98 478 274 478C274 479.65 274 481.3 274 483C274.66 483 275.32 483 276 483C276 484.65 276 486.3 276 488C276.99 488 277.98 488 279 488C279 489.65 279 491.3 279 493C279.66 493 280.32 493 281 493C281 494.65 281 496.3 281 498C281.99 498 282.98 498 284 498C284 498.66 284 499.32 284 500C284.66 500 285.32 500 286 500C286 501.65 286 503.3 286 505C286.66 505 287.32 505 288 505C288.33 506.65 288.66 508.3 289 510C289.66 510 290.32 510 291 510C291 511.65 291 513.3 291 515C291.66 515 292.32 515 293 515C293 515.99 293 516.98 293 518C293.99 518 294.98 518 296 518C296 518.66 296 519.32 296 520C296.66 520 297.32 520 298 520C298 521.65 298 523.3 298 525C298.99 525 299.98 525 301 525C301 526.65 301 528.3 301 530C301.66 530 302.32 530 303 530C303 530.66 303 531.32 303 532C303.99 532 304.98 532 306 532C306 532.99 306 533.98 306 535C306.66 535 307.32 535 308 535C308 536.65 308 538.3 308 540C308.99 540 309.98 540 311 540C311 540.66 311 541.32 311 542C311.66 542 312.32 542 313 542C313 543.65 313 545.3 313 547C313.99 547 314.98 547 316 547C316 547.99 316 548.98 316 550C316.66 550 317.32 550 318 550C318 550.66 318 551.32 318 552C318.66 552 319.32 552 320 552C320.33 553.65 320.66 555.3 321 557C321.66 557 322.32 557 323 557C323 557.99 323 558.98 323 560C323.66 560 324.32 560 325 560C325 560.66 325 561.32 325 562C325.99 562 326.98 562 328 562C328 563.65 328 565.3 328 567C328.99 567 329.98 567 331 567C331 567.66 331 568.32 331 569C331.66 569 332.32 569 333 569C333 570.65 333 572.3 333 574C333.66 574 334.32 574 335 574C335 574.99 335 575.98 335 577C335.99 577 336.98 577 338 577C338 577.66 338 578.32 338 579C338.66 579 339.32 579 340 579C340 579.99 340 580.98 340 582C340.99 582 341.98 582 343 582C343 582.66 343 583.32 343 584C343.66 584 344.32 584 345 584C345 585.65 345 587.3 345 589C345.99 589 346.98 589 348 589C348 589.99 348 590.98 348 592C348.66 592 349.32 592 350 592C350 593.32 350 594.64 350 596C350.99 596 351.98 596 353 596C353 596.99 353 597.98 353 599C353.66 599 354.32 599 355 599C355 599.66 355 600.32 355 601C355.99 601 356.98 601 358 601C358 601.99 358 602.98 358 604C358.66 604 359.32 604 360 604C360 605.65 360 607.3 360 609C360.99 609 361.98 609 363 609C363 609.66 363 610.32 363 611C363.66 611 364.32 611 365 611C365 611.99 365 612.98 365 614C365.66 614 366.32 614 367 614C367 614.66 367 615.32 367 616C367.99 616 368.98 616 370 616C370 617.65 370 619.3 370 621C370.99 621 371.98 621 373 621C373.66 622.65 374.32 624.3 375 626C375.66 626 376.32 626 377 626C377 627.65 377 629.3 377 631C377.99 631 378.98 631 380 631C380 631.66 380 632.32 380 633C380.66 633 381.32 633 382 633C382 633.99 382 634.98 382 636C382.99 636 383.98 636 385 636C385 636.66 385 637.32 385 638C385.66 638 386.32 638 387 638C387 639.65 387 641.3 387 643C387.99 643 388.98 643 390 643C390 643.99 390 644.98 390 646C390.66 646 391.32 646 392 646C392 646.66 392 647.32 392 648C392.66 648 393.32 648 394 648C394.33 649.65 394.66 651.3 395 653C395.66 653 396.32 653 397 653C397 653.99 397 654.98 397 656C397.66 656 398.32 656 399 656C399 656.66 399 657.32 399 658C399.99 658 400.98 658 402 658C402 659.65 402 661.3 402 663C402.66 663 403.32 663 404 663C404 663.99 404 664.98 404 666C404.99 666 405.98 666 407 666C407 666.66 407 667.32 407 668C407.66 668 408.32 668 409 668C409 669.65 409 671.3 409 673C409.99 673 410.98 673 412 673C412 673.66 412 674.32 412 675C412.66 675 413.32 675 414 675C414 675.99 414 676.98 414 678C414.99 678 415.98 678 417 678C417 679.65 417 681.3 417 683C417.66 683 418.32 683 419 683C419 683.99 419 684.98 419 686C419.66 686 420.32 686 421 686C421.33 687.32 421.66 688.64 422 690C422.66 690 423.32 690 424 690C424 690.99 424 691.98 424 693C424.99 693 425.98 693 427 693C427 693.66 427 694.32 427 695C427.66 695 428.32 695 429 695C429 696.65 429 698.3 429 700C429.66 700 430.32 700 431 700C431.33 701.65 431.66 703.3 432 705C432.66 705 433.32 705 434 705C434 705.66 434 706.32 434 707C434.99 707.33 435.98 707.66 437 708C437 708.66 437 709.32 437 710C437.66 710 438.32 710 439 710C439 711.65 439 713.3 439 715C439.66 715 440.32 715 441 715C441.33 716.32 441.66 717.64 442 719C442.66 719 443.32 719 444 719C444 720.98 444 722.96 444 725C444.66 725 445.32 725 446 725C446 725.66 446 726.32 446 727C446.99 727 447.98 727 449 727C449 729.64 449 732.28 449 735C449.66 735 450.32 735 451 735C451 735.66 451 736.32 451 737C451.99 737 452.98 737 454 737C454 738.65 454 740.3 454 742C454.66 742 455.32 742 456 742C456 743.65 456 745.3 456 747C456.99 747 457.98 747 459 747C459 748.65 459 750.3 459 752C459.66 752 460.32 752 461 752C461 754.31 461 756.62 461 759C461.99 759 462.98 759 464 759C464 760.65 464 762.3 464 764C464.66 764 465.32 764 466 764C466 766.31 466 768.62 466 771C466.66 771 467.32 771 468 771C468.33 773.64 468.66 776.28 469 779C469.66 779 470.32 779 471 779C471 781.31 471 783.62 471 786C471.66 786 472.32 786 473 786C473 788.64 473 791.28 473 794C473.99 794 474.98 794 476 794C476 798.62 476 803.24 476 808C476.66 808 477.32 808 478 808C478.464 810.382 478.464 810.382 478.938 812.812C479.827 817.679 479.827 817.679 481 821C481.04 825 481.043 829 481 833C481.66 833 482.32 833 483 833C483 846.86 483 860.72 483 875C482.34 875 481.68 875 481 875C481 881.6 481 888.2 481 895C480.01 895 479.02 895 478 895C478 898.96 478 902.92 478 907C477.34 907 476.68 907 476 907C476 910.3 476 913.6 476 917C475.34 917 474.68 917 474 917C473.67 919.97 473.34 922.94 473 926C472.34 926 471.68 926 471 926C471 927.98 471 929.96 471 932C470.34 932 469.68 932 469 932C468.67 934.31 468.34 936.62 468 939C467.34 939 466.68 939 466 939C466 939.99 466 940.98 466 942C465.34 942 464.68 942 464 942C464 939.36 464 936.72 464 934C464.66 934 465.32 934 466 934C466 926.74 466 919.48 466 912C465.34 912 464.68 912 464 912C463.67 907.05 463.34 902.1 463 897C462.34 897 461.68 897 461 897C461 893.04 461 889.08 461 885C460.34 885 459.68 885 459 885C459 883.35 459 881.7 459 880C458.01 880 457.02 880 456 880C456 877.69 456 875.38 456 873C455.34 873 454.68 873 454 873C454 871.35 454 869.7 454 868C453.01 868 452.02 868 451 868C451 866.35 451 864.7 451 863C450.34 863 449.68 863 449 863C449 861.35 449 859.7 449 858C448.01 858 447.02 858 446 858C446 857.01 446 856.02 446 855C445.34 855 444.68 855 444 855C444 853.68 444 852.36 444 851C443.01 851 442.02 851 441 851C441 850.01 441 849.02 441 848C440.34 848 439.68 848 439 848C439 846.35 439 844.7 439 843C438.01 843 437.02 843 436 843C436 842.34 436 841.68 436 841C435.34 841 434.68 841 434 841C434 840.01 434 839.02 434 838C433.01 838 432.02 838 431 838C431 837.34 431 836.68 431 836C430.34 836 429.68 836 429 836C429 835.01 429 834.02 429 833C428.34 833 427.68 833 427 833C427 832.34 427 831.68 427 831C426.01 831 425.02 831 424 831C424 830.01 424 829.02 424 828C423.34 828 422.68 828 422 828C422 827.34 422 826.68 422 826C421.01 826 420.02 826 419 826C419 825.01 419 824.02 419 823C418.34 823 417.68 823 417 823C417 822.34 417 821.68 417 821C416.01 821 415.02 821 414 821C414 820.01 414 819.02 414 818C413.34 818 412.68 818 412 818C412 817.34 412 816.68 412 816C410.35 816 408.7 816 407 816C407 815.34 407 814.68 407 814C406.01 814 405.02 814 404 814C404 813.01 404 812.02 404 811C403.34 811 402.68 811 402 811C402 810.34 402 809.68 402 809C401.34 809 400.68 809 400 809C400 808.01 400 807.02 400 806C398.02 806 396.04 806 394 806C394 805.34 394 804.68 394 804C393.34 804 392.68 804 392 804C392 803.01 392 802.02 392 801C390.35 801 388.7 801 387 801C387 800.34 387 799.68 387 799C386.01 799 385.02 799 384 799C384 798.34 384 797.68 384 797C382.68 796.67 381.36 796.34 380 796C380 795.34 380 794.68 380 794C379.01 794 378.02 794 377 794C377 793.01 377 792.02 377 791C375.35 791 373.7 791 372 791C372 790.34 372 789.68 372 789C371.34 789 370.68 789 370 789C370 788.01 370 787.02 370 786C368.35 786 366.7 786 365 786C365 785.34 365 784.68 365 784C364.34 784 363.68 784 363 784C363 783.01 363 782.02 363 781C362.01 781 361.02 781 360 781C360 780.34 360 779.68 360 779C358.35 779 356.7 779 355 779C355 778.34 355 777.68 355 777C353.35 776.67 351.7 776.34 350 776C350 775.34 350 774.68 350 774C349.01 774 348.02 774 347 774C347 773.34 347 772.68 347 772C345.68 771.67 344.36 771.34 343 771C343 770.34 343 769.68 343 769C342.01 769 341.02 769 340 769C340 768.34 340 767.68 340 767C338.68 766.67 337.36 766.34 336 766C336 765.34 336 764.68 336 764C335.01 764 334.02 764 333 764C333 763.34 333 762.68 333 762C331.35 762 329.7 762 328 762C328 761.01 328 760.02 328 759C327.01 759 326.02 759 325 759C325 758.34 325 757.68 325 757C323.68 756.67 322.36 756.34 321 756C321 755.34 321 754.68 321 754C320.01 754 319.02 754 318 754C318 753.34 318 752.68 318 752C316.35 752 314.7 752 313 752C313 751.01 313 750.02 313 749C312.34 749 311.68 749 311 749C311 748.34 311 747.68 311 747C310.01 747 309.02 747 308 747C308 746.01 308 745.02 308 744C307.34 744 306.68 744 306 744C306 743.34 306 742.68 306 742C304.35 742 302.7 742 301 742C301 741.34 301 740.68 301 740C300.01 740 299.02 740 298 740C298 739.01 298 738.02 298 737C296.35 737 294.7 737 293 737C293 736.34 293 735.68 293 735C292.34 735 291.68 735 291 735C291 734.01 291 733.02 291 732C290.01 732 289.02 732 288 732C288 731.34 288 730.68 288 730C287.34 730 286.68 730 286 730C286 729.01 286 728.02 286 727C284.35 727 282.7 727 281 727C281 726.34 281 725.68 281 725C280.34 725 279.68 725 279 725C279 724.01 279 723.02 279 722C277.35 722 275.7 722 274 722C274 721.34 274 720.68 274 720C273.01 720 272.02 720 271 720C271 719.01 271 718.02 271 717C270.34 717 269.68 717 269 717C269 716.34 269 715.68 269 715C267.35 715 265.7 715 264 715C264 714.01 264 713.02 264 712C263.34 712 262.68 712 262 712C262 711.34 262 710.68 262 710C261.01 710 260.02 710 259 710C259 709.01 259 708.02 259 707C258.34 707 257.68 707 257 707C257 706.34 257 705.68 257 705C256.01 705 255.02 705 254 705C254 704.01 254 703.02 254 702C253.34 702 252.68 702 252 702C252 701.34 252 700.68 252 700C250.35 700 248.7 700 247 700C247 699.34 247 698.68 247 698C246.01 698 245.02 698 244 698C244 697.01 244 696.02 244 695C243.34 695 242.68 695 242 695C242 694.34 242 693.68 242 693C241.01 693 240.02 693 239 693C239 692.01 239 691.02 239 690C238.34 690 237.68 690 237 690C237 689.34 237 688.68 237 688C236.01 688 235.02 688 234 688C234 687.01 234 686.02 234 685C233.34 685 232.68 685 232 685C232 684.34 232 683.68 232 683C231.01 683 230.02 683 229 683C229 682.34 229 681.68 229 681C228.34 681 227.68 681 227 681C227 680.01 227 679.02 227 678C226.01 678 225.02 678 224 678C224 677.34 224 676.68 224 676C223.34 676 222.68 676 222 676C222 675.01 222 674.02 222 673C221.01 673 220.02 673 219 673C219 672.34 219 671.68 219 671C218.34 671 217.68 671 217 671C217 670.01 217 669.02 217 668C216.34 668 215.68 668 215 668C212 665 212 665 212 663C211.34 663 210.68 663 210 663C210 662.34 210 661.68 210 661C209.01 661 208.02 661 207 661C207 660.01 207 659.02 207 658C206.34 658 205.68 658 205 658C205 657.34 205 656.68 205 656C204.01 656 203.02 656 202 656C202 654.35 202 652.7 202 651C201.34 651 200.68 651 200 651C200 650.01 200 649.02 200 648C199.01 648 198.02 648 197 648C197 647.34 197 646.68 197 646C196.34 646 195.68 646 195 646C195 645.01 195 644.02 195 643C194.34 643 193.68 643 193 643C193 642.34 193 641.68 193 641C192.01 641 191.02 641 190 641C190 639.35 190 637.7 190 636C189.01 636 188.02 636 187 636C187 635.34 187 634.68 187 634C186.34 634 185.68 634 185 634C185 632.35 185 630.7 185 629C184.34 629 183.68 629 183 629C183 628.01 183 627.02 183 626C182.01 626 181.02 626 180 626C180 624.35 180 622.7 180 621C179.01 621 178.02 621 177 621C177 620.34 177 619.68 177 619C176.34 619 175.68 619 175 619C175 617.35 175 615.7 175 614C174.01 614 173.02 614 172 614C172 613.01 172 612.02 172 611C171.34 611 170.68 611 170 611C170 609.35 170 607.7 170 606C169.34 606 168.68 606 168 606C168 604.35 168 602.7 168 601C167.01 601 166.02 601 165 601C165 600.34 165 599.68 165 599C164.34 599 163.68 599 163 599C163 597.35 163 595.7 163 594C162.01 594 161.02 594 160 594C160 592.35 160 590.7 160 589C159.34 589 158.68 589 158 589C158 587.35 158 585.7 158 584C157.01 584 156.02 584 155 584C155 582.35 155 580.7 155 579C154.34 579 153.68 579 153 579C153 577.35 153 575.7 153 574C152.01 574 151.02 574 150 574C150 571.69 150 569.38 150 567C149.34 567 148.68 567 148 567C148 563.7 148 560.4 148 557C147.34 557 146.68 557 146 557C146 555.35 146 553.7 146 552C145.01 552 144.02 552 143 552C143 548.7 143 545.4 143 542C142.34 542 141.68 542 141 542C141 539.69 141 537.38 141 535C140.01 535 139.02 535 138 535C138 530.05 138 525.1 138 520C137.34 520 136.68 520 136 520C135.691 517.896 135.381 515.793 135.062 513.625C134.441 507.632 134.441 507.632 133 505C132.912 500.998 132.893 496.995 132.902 492.992C132.904 491.796 132.905 490.601 132.907 489.369C132.912 485.537 132.925 481.706 132.937 477.875C132.942 475.283 132.947 472.69 132.951 470.098C132.962 463.732 132.979 457.366 133 451C133.66 451 134.32 451 135 451C134.979 449.123 134.959 447.246 134.937 445.312C135 439 135 439 136 434C136.66 434 137.32 434 138 434C138 429.05 138 424.1 138 419C138.66 419 139.32 419 140 419C140.33 415.7 140.66 412.4 141 409C141.66 409 142.32 409 143 409C143 405.7 143 402.4 143 399C143.66 399 144.32 399 145 399C145 396.69 145 394.38 145 392C145.99 392 146.98 392 148 392C148 388.7 148 385.4 148 382C148.66 382 149.32 382 150 382C150 380.35 150 378.7 150 377C150.99 377 151.98 377 153 377C153 373.7 153 370.4 153 367C153.66 367 154.32 367 155 367C155 365.35 155 363.7 155 362C155.99 362 156.98 362 158 362C158 359.69 158 357.38 158 355C158.66 355 159.32 355 160 355C160 353.35 160 351.7 160 350C160.99 350 161.98 350 163 350C163 347.36 163 344.72 163 342C163.66 342 164.32 342 165 342C165.495 340.02 165.495 340.02 166 338C166.66 338 167.32 338 168 338C168 336.35 168 334.7 168 333C168.66 333 169.32 333 170 333C170 330.36 170 327.72 170 325C170.99 325 171.98 325 173 325C173 323.35 173 321.7 173 320C173.66 320 174.32 320 175 320C175 318.35 175 316.7 175 315C175.66 315 176.32 315 177 315C177.495 313.02 177.495 313.02 178 311C178.66 311 179.32 311 180 311C180 309.02 180 307.04 180 305C180.66 305 181.32 305 182 305C182.495 303.02 182.495 303.02 183 301C183.66 301 184.32 301 185 301C185 300.01 185 299.02 185 298C185.66 298 186.32 298 187 298C187.33 296.35 187.66 294.7 188 293C188.66 293 189.32 293 190 293C190 291.35 190 289.7 190 288C190.66 288 191.32 288 192 288C192.33 286.68 192.66 285.36 193 284C193.66 284 194.32 284 195 284C195 282.02 195 280.04 195 278C195.66 278 196.32 278 197 278C197 276.35 197 274.7 197 273C197.66 273 198.32 273 199 273C199 272.34 199 271.68 199 271C199.99 271 200.98 271 202 271C202 269.35 202 267.7 202 266C202.99 266 203.98 266 205 266C205 264.35 205 262.7 205 261C205.66 261 206.32 261 207 261C207 260.34 207 259.68 207 259C207.99 259 208.98 259 210 259C210 257.35 210 255.7 210 254C210.66 254 211.32 254 212 254C212 252.35 212 250.7 212 249C212.99 249 213.98 249 215 249C215 248.34 215 247.68 215 247C215.66 247 216.32 247 217 247C217 245.02 217 243.04 217 241C217.66 241 218.32 241 219 241C219 240.34 219 239.68 219 239C219.99 239 220.98 239 222 239C222 237.35 222 235.7 222 234C222.99 234 223.98 234 225 234C225 233.34 225 232.68 225 232C225.66 232 226.32 232 227 232C227 231.01 227 230.02 227 229Z" fill="#FB8403"/>
</svg>
